<svg xmlns="http://www.w3.org/2000/svg" class="iconfont" viewBox="129.2 30.2 1120.6 411.8" style="height:50px;fill:#591804"><path d="m1192.5 335-26.9-115.2-8.6-3 7.7 118.2h-59V82.7l5.7-5.8 46.8-5.5 30.4 118.2 8.8 2.6-7.5-109.2 3.4-5.9 56.5-5.4V335h-57.3zm-234.7-.5-10.3-8.7-9.2-58v-11l9.3-167.2 9.7-9.9 92.1-13.7 28.5 34.5 5.5 40v30.3h-53.2l-11.5-55.5-17.9 3.2-5 149.4 5 23 22.1-3.6 6.7-52.3h53.8v73l-19.4 26.5zm-59.3-45.8h34V335h-34v-46.3zm-75.2-.4h-25.5l-4.2 46.7h-62.7l30.2-248.4 10.4-9.7 81.1-9.3L889 335H827zm-10.3-159-5.9 3.7L797 242.3h24.5zM669.4 316.5l-16.1 18-64.5.1-10.3-8.7-9.2-58v-11l9.3-167.2 9.7-9.9L680.4 66l28.5 34.5 5.5 40v30.3h-53.2l-11.5-55.5-17.8 3.2-5.1 149.4 5 23 22.1-3.6 3-21.4 3.7-30.9h-19.4v-39.5h73.2V335h-39.3zm-123 18.6h-57.3l-26.8-115.2-8.7-3 7.7 118.2h-59V82.7l5.8-5.8 46.7-5.5 30.5 118.2 8.8 2.6L486.6 83l3.3-5.9 62.2-7.5-5.6 31.4v234zM404 366h-13.7v6.6h-11.5V366h-19.4v6.6h-11.3V366h-14v-8.1h14V351h11.3v6.8h19.4V351h11.5v6.8H404v8zM169.2 286l-40-2.9v-253h225L351 75.4l27.8 2v257.7H165.7zm29.6-207.8-11.5 3-11 19.1 17.8 12.3 18.8-5.6.7-2.1-2.7-23.8 3.6-26.8zm44 3.4-10.3 17.6 5.9 20 8.5-4.2 8.8-3 4.8-23.2 4.2-37.1zm41.6 6.8-15.3 23.8 4 15.2 18.9-4 4-16.3 2.8-14 3.7-26.7zm32.2 19.8-15.8 23.5 4.1 11.7 15.7-4.2 9-21.6 5.4-28zm37.3 34-.9-9.2 2-15-13.1 19.8-13.6 3.7 5.8 16.8 14.2.1zM261.5 303l27.3 10.6L308 278l-12.3-31.3-51-7.7-2.6 34.3zM203 165.5l31.5 2 68.3 52.4 12.6 3.6 20.9-11.2-2.2-24.4-76.6-50.4-71.3-8.1-34.9 33.5-3 27.8s12 24.2 20.5 36.5l40.1 1-11.2-54.5zm-31 190.2 2.5 18.4-6.2-.3-2.2-17.4zm17.5 18.4 3-18.4 4.4.7-3.3 17.7h-4zm-22.2 16.5v-8.9h9.5V351h9.8v30.7h8.3v9h-8.4l11.6 24.4-4.5 6.8-3-8-3.6-8.1-.4 36.2H177l.2-36.2-4.2 11.2-4.2 10.2-5.7-8.5 13.7-28h-9.3zm48.1-12.7H203v-5.7h12.6v-8h-13.4v-6.5h13.4V351h11.3v6.7h13.4v6.4h-13.4v8h12.5v5.8h-12.5v8.2h15.3v7.3h-40.9v-7.3h14.3V378zm23.8 64h-9.7l1-2V429h-19V442H203v-41.6h36.4V442zm-20.7-34.2h-7v14.6h7v-14.6zm12 0h-6.7v14.6h6.7v-14.6zm-1 34.3zm112.9-58.6h20.4V375h12.4v8.4h20.4v20.4h7.4v9.3h-22.7l3.2 3.7a83 83 0 0 0 19.5 16.2l-7.2 9a102.8 102.8 0 0 1-24.7-23.5l-1.6-2-1.9 1.7a115.6 115.6 0 0 1-25 23.8l-7.4-9a88.5 88.5 0 0 0 19.4-16.2l3.3-3.7h-23v-9.3h7.5v-20.4zm32.8 20.4h10.8V391h-10.8v12.7zm-23.2 0H363V391h-10.8v12.7zm154.8-10h-6v-11.5h6v-18.5H500v-11.7h25.4V364h-6.2v18.4h5.2v11.5h-5.2v22l7.8-.5v12l-28.8 2v-12l8.6-.6v-22.9zm65.6-42.8v11.2h-37.2V351h37.2zm5 36.7h-7.4v42.8h8.3l.9-.8V441h-21v-53.3H550l-3.7 54.3-11.7-.7 3.5-53.6h-7v-10.9h46.5v11zM697.7 351H712v7.5h28.6v20H730V367h-50.5v11.5H669v-20h28.6V351zm4.8 57-.3-3.4-28 16.1-4.3-6.2 31-17-1.7-7-24.3 13.2-4.2-6.8 23.5-11.8-1-4h-6v-6.8h35.3v6.8h-14l1.3 3a79.4 79.4 0 0 1 3.4 9.2l1 2.9 16.2-11.2 5.9 7.6-17 11.1 21.8 24.8-8.2 7.1-16.7-20.5-.5 5.4a64.2 64.2 0 0 1-6.3 21.5l-13.5-2.8.4-.2.3-.7a77 77 0 0 0 4-11.3l1.2-5.1-26.9 16-4.7-6.7 32.4-18.3v-1.3a34.2 34.2 0 0 0-.1-3.6zm158.1-54.2-5.2 11.6V441h-10.4l.1-54-4 9.4-2.5 5.4-6.8-8 20-42.7zm6.2 1.4h36.8v56.6h6.1v9.1h-48.1v-9.1h5.2v-56.6zm10.1 56.6h16.5v-8h-16.5v8zm0-13.8h16.5v-8.1h-16.5v8zm0-13.3h16.5v-8h-16.5v8zm0-13.7h16.5v-8h-16.5v8zm4.4 59.8L869.3 442l-6.7-7.5 12-11zm29.5 3.7-6.5 7.5-12-11.2 6.4-7.3zm113.7-18.6-15.6 21.9-7.5-7.3 15.6-21zm7-13.7h-28.6v-10.3h5.9v-35.5l53-5.4 1.1 9-42.6 4.5V392h11.1v-20.6h13.8V392h26.3v10.3h-26.3V442h-16.4l2.6-3.3v-36.5zm44.1 28.2-7.6 7.4-15.5-21.8 7.5-6.5zm98.5-61h-3.9v-8.7h13.5V351h11.3v9.7h14.2v8.7h-4.7V387h5.7v9.6H1168V387h6v-17.6zm9.8 17.6h11v-17.6h-11V387zm23.7 55H1172v-35.2h35.6V442zm-10.2-25.3h-14.9v15.7h14.9v-15.7zm42.3-26.9.4.8a46.8 46.8 0 0 1 6.6 23.5c0 10.3-4 21.3-12.9 21.3h-7.2v6.5h-10.3V353h30.8zm-13.2-26.6V388l4.3.4 4.6-25.2h-8.9zm4 29-4 1v30.6h3c4 0 6.5-4.6 6.5-11.7a47 47 0 0 0-5.5-20z"></path></svg>